<svg
      xmlns="http://www.w3.org/2000/svg"
      width="111.719"
      height="169.997"
      version="1.1"
      viewBox="0 0 55.86 84.999"
    >
      <g className="ldl-scale" transform="translate(-22.07 -7.5)">
        <path
          fill="#f4e6c8"
          d="M38.283 68.939a5.332 5.332 0 00-5.532 1.459c-1.44 1.579-1.751 3.636-1.15 5.396.286.836.232 1.74-.229 2.493l-.075.126c-.537.93-.78 1.909-.741 2.742.06 1.275-.195 2.545-.906 3.605l-.075.112c-.764 1.161-1.667 2.241-2.242 3.51-.585 1.264-1.105 2.565-1.353 4.024l.162.093c1.139-.944 2.006-2.045 2.808-3.184.812-1.133 1.296-2.455 1.919-3.697l.06-.122c.563-1.146 1.534-2.002 2.669-2.588.741-.382 1.467-1.082 2.004-2.013l.062-.11c.426-.774 1.176-1.292 2.043-1.461a5.343 5.343 0 003.619-2.579 5.372 5.372 0 00-3.043-7.806z"
        ></path>
        <g>
          <path
            fill="#666"
            d="M51.289 59.812l-9.573-5.527L30.86 67.999l13.98 8.072z"
          ></path>
          <path
            d="M47.787 66.516c-5.698 1.916-11.391 1.662-15.539-.272l-1.389 1.755 13.98 8.072 3.937-9.927c-.328.126-.65.259-.989.372z"
            opacity="0.1"
          ></path>
        </g>
        <g>
          <path
            fill="#e15c64"
            d="M77.924 13.969a6.216 6.216 0 00-4.368-6.203c-1.804-.567-3.775-.195-5.371.82l-12.296 7.823a11.545 11.545 0 00-3.098 2.902l23.532 13.586c.571-1.304.903-2.704.964-4.134z"
          ></path>
          <path
            d="M76.553 13.255c-3.432 5.546-7.785 9.898-12.28 12.685l12.049 6.957c.571-1.304.903-2.704.964-4.134l.637-14.794a6.19 6.19 0 00-.395-2.406c-.316.565-.628 1.132-.975 1.692z"
            opacity="0.1"
          ></path>
        </g>
        <path
          fill="#f47e5f"
          d="M65.194 52.327L53.331 70.982l.805.464 6.972 5.381 5.834-8.361a6.753 6.753 0 00.531-4.151z"
        ></path>
        <path
          d="M65.194 52.327L53.331 70.982l.805.464 6.972 5.381 5.834-8.361a6.753 6.753 0 00.531-4.151z"
          opacity="0.1"
        ></path>
        <g>
          <path
            fill="#f47e5f"
            d="M26.395 45.057L22.07 54.29l8.146 3.347 1.069.617 10.434-19.919-11.995 4.187a6.747 6.747 0 00-3.329 2.535z"
          ></path>
          <path
            d="M24.874 51.926a6.851 6.851 0 01-1.251-.952L22.07 54.29l8.146 3.347 1.069.617 4.037-7.708c-3.67 2.399-7.524 3.06-10.448 1.38z"
            opacity="0.1"
          ></path>
        </g>
        <g>
          <path
            fill="#e0e0e0"
            d="M52.084 20.381L41.719 38.335 31.285 58.254l22.046 12.728 11.863-18.655L75.75 34.044c.214-.371.402-.756.573-1.147L52.791 19.311c-.253.343-.492.698-.707 1.07z"
          ></path>
          <path
            d="M34.533 55.66a12.672 12.672 0 01-1.418-.899l-1.83 3.493 22.046 12.728 11.863-18.655L75.75 34.044c.214-.371.402-.756.573-1.147l-2.574-1.486C62.55 50.674 45.371 61.462 34.533 55.66z"
            opacity="0.1"
          ></path>
        </g>
        <circle
          cx="57.535"
          cy="37.939"
          r="5.892"
          fill="#a0c8d7"
          transform="rotate(-60 57.536 37.94)"
        ></circle>
        <path
          fill="none"
          stroke="#fff"
          strokeLinecap="round"
          strokeMiterlimit="10"
          strokeWidth="3"
          d="M47.113 35.016l-.388.671"
        ></path>
        <path
          fill="none"
          stroke="#fff"
          strokeLinecap="round"
          strokeMiterlimit="10"
          strokeWidth="3"
          d="M52.165 26.268l-2.692 4.661"
        ></path>
      </g>
    </svg>
