 <svg
      xmlns="http://www.w3.org/2000/svg"
      width="227.62"
      height="309.151"
      scale="0.2"
      x="0"
      y="0"
      version="1.1"
      viewBox="0 0 60.861 82.661"
      xmlSpace="preserve"
    >
      <g className="ldl-scale" transform="translate(-19.57 -8.67)">
        <path
          fill="#a0c8d7"
          stroke="#333"
          strokeLinejoin="round"
          strokeMiterlimit="10"
          strokeWidth="2.661"
          d="M50 10L20.9 30v0L50 50z"
        ></path>
        <path
          fill="#77a4bd"
          stroke="#333"
          strokeLinejoin="round"
          strokeMiterlimit="10"
          strokeWidth="2.661"
          d="M20.9 30v40L50 50z"
        ></path>
        <path
          fill="#e0e0e0"
          stroke="#333"
          strokeLinejoin="round"
          strokeMiterlimit="10"
          strokeWidth="2.661"
          d="M79.1 30v0L50 10v40z"
        ></path>
        <path
          fill="#a0c8d7"
          stroke="#333"
          strokeLinejoin="round"
          strokeMiterlimit="10"
          strokeWidth="2.661"
          d="M79.1 30L50 50l29.1 20v0z"
        ></path>
        <path
          fill="#77a4bd"
          stroke="#333"
          strokeLinejoin="round"
          strokeMiterlimit="10"
          strokeWidth="2.661"
          d="M50 90l29.1-20L50 50z"
        ></path>
        <path
          fill="#666"
          stroke="#333"
          strokeLinejoin="round"
          strokeMiterlimit="10"
          strokeWidth="2.661"
          d="M20.9 70L50 90V50z"
        ></path>
        <path
          fill="#fff"
          stroke="#333"
          strokeLinejoin="round"
          strokeMiterlimit="10"
          strokeWidth="2.557"
          d="M50 25.8L33.8 37.9v24.2L50 74.2l16.2-12.1V37.9z"
        ></path>
        <path fill="none" d="M35 61.5l15 11.1 15-11.1V40.4L35 61.3z"></path>
        <path fill="none" d="M60.5 35.2L35 53v3.1l27.6-19.3z"></path>
        <path fill="none" d="M50 27.4L35 38.5v5.4l19.2-13.4z"></path>
        <path fill="#a0c8d7" d="M54.2 30.5L35 43.9V53l25.5-17.8z"></path>
        <path fill="#a0c8d7" d="M62.6 36.8L35 56.1v5.2l30-20.9v-1.9z"></path>
      </g>
    </svg>
